<svg xmlns="http://www.w3.org/2000/svg" width="100" height="100" viewBox="0 0 100 100">
  <g id="Group_8" data-name="Group 8" transform="translate(-897 -2259)">
    <g id="Ellipse_6" data-name="Ellipse 6" transform="translate(897 2259)" fill="none" stroke="#e76f51" stroke-width="2">
      <circle cx="50" cy="50" r="50" stroke="none"/>
      <circle cx="50" cy="50" r="49" fill="none"/>
    </g>
    <path id="Icon_metro-earth" data-name="Icon metro-earth" d="M30.814,1.928A28.243,28.243,0,1,0,59.057,30.171,28.243,28.243,0,0,0,30.814,1.928Zm0,52.956a24.63,24.63,0,0,1-9.776-2.011L33.9,38.4a1.765,1.765,0,0,0,.446-1.173v-5.3a1.765,1.765,0,0,0-1.765-1.765c-6.233,0-12.809-6.48-12.874-6.544a1.765,1.765,0,0,0-1.248-.517H11.4a1.765,1.765,0,0,0-1.765,1.765V35.467a1.765,1.765,0,0,0,.976,1.579l6.085,3.043V50.453A24.728,24.728,0,0,1,8.481,19.58h6.446a1.765,1.765,0,0,0,1.248-.517L23.236,12a1.765,1.765,0,0,0,.517-1.248V6.484A24.782,24.782,0,0,1,41.641,7.952c-.229.193-.451.4-.664.609a10.593,10.593,0,0,0,7.482,18.082q.262,0,.525-.013c.762,2.858,2.138,10.3-.464,20.539a1.76,1.76,0,0,0-.046.288,24.636,24.636,0,0,1-17.66,7.428Z" transform="translate(916.186 2278.829)" fill="#e76f51"/>
  </g>
</svg>
