<svg xmlns="http://www.w3.org/2000/svg" width="100" height="100" viewBox="0 0 100 100">
  <g id="Group_4" data-name="Group 4" transform="translate(-370 -2259)">
    <g id="Ellipse_6" data-name="Ellipse 6" transform="translate(370 2259)" fill="none" stroke="#e76f51" stroke-width="2">
      <circle cx="50" cy="50" r="50" stroke="none"/>
      <circle cx="50" cy="50" r="49" fill="none"/>
    </g>
    <path id="Icon_ionic-ios-happy" data-name="Icon ionic-ios-happy" d="M30.923,3.375A27.548,27.548,0,1,0,58.471,30.923,27.544,27.544,0,0,0,30.923,3.375Zm9.536,20.131a3.179,3.179,0,1,1-3.179,3.179A3.171,3.171,0,0,1,40.459,23.506Zm-19.072,0a3.179,3.179,0,1,1-3.179,3.179A3.171,3.171,0,0,1,21.387,23.506Zm9.536,22.383a13,13,0,0,1-12.476-9.364,1.064,1.064,0,0,1,1.02-1.364h22.9a1.066,1.066,0,0,1,1.02,1.364A12.975,12.975,0,0,1,30.923,45.889Z" transform="translate(388.625 2278.077)" fill="#e76f51"/>
  </g>
</svg>
